inDegrees=no
num_controls=7
num_derivatives=13
num_iterations=145
num_multipliers=7
num_parameters=0
num_slacks=7
num_states=26
objective=5.535298
objective_accelerations=0.284955
objective_balance=0.016021
objective_effort=0.316313
objective_height=4.822689
objective_ligament=0.095320
solver_duration=1257.371526
status=Solve_Succeeded
success=true
DataType=double
version=3
OpenSimVersion=4.4-2022-07-23-0e9fedc
endheader
time	/jointset/ground_pelvis/pelvis_tilt/value	/jointset/ground_pelvis/pelvis_tx/value	/jointset/ground_pelvis/pelvis_ty/value	/jointset/hip_r/hip_flexion_r/value	/jointset/hip_r/hip_adduction_r/value	/jointset/hip_r/hip_rotation_r/value	/jointset/back/lumbar_extension/value	/jointset/patellofemoral_r/patellar_flexion_r/value	/jointset/knee_r/knee_flexion_r/value	/jointset/knee_r/knee_adduction_r/value	/jointset/knee_r/knee_rotation_r/value	/jointset/ankle_r/ankle_angle_r/value	/jointset/subtalar_r/subtalar_angle_r/value	/jointset/ground_pelvis/pelvis_tilt/speed	/jointset/ground_pelvis/pelvis_tx/speed	/jointset/ground_pelvis/pelvis_ty/speed	/jointset/hip_r/hip_flexion_r/speed	/jointset/hip_r/hip_adduction_r/speed	/jointset/hip_r/hip_rotation_r/speed	/jointset/back/lumbar_extension/speed	/jointset/patellofemoral_r/patellar_flexion_r/speed	/jointset/knee_r/knee_flexion_r/speed	/jointset/knee_r/knee_adduction_r/speed	/jointset/knee_r/knee_rotation_r/speed	/jointset/ankle_r/ankle_angle_r/speed	/jointset/subtalar_r/subtalar_angle_r/speed	/forceset/tau_hip_flexion_r	/forceset/tau_hip_adduction_r	/forceset/tau_hip_rotation_r	/forceset/tau_knee_flexion_r	/forceset/tau_ankle_angle_r	/forceset/tau_subtalar_angle_r	/forceset/tau_lumbar_extension	lambda_cid13_p0	lambda_cid14_p0	lambda_cid14_p1	lambda_cid14_p2	lambda_cid14_p3	lambda_cid14_p4	lambda_cid14_p5	/jointset/ground_pelvis/pelvis_tilt/accel	/jointset/ground_pelvis/pelvis_tx/accel	/jointset/ground_pelvis/pelvis_ty/accel	/jointset/hip_r/hip_flexion_r/accel	/jointset/hip_r/hip_adduction_r/accel	/jointset/hip_r/hip_rotation_r/accel	/jointset/back/lumbar_extension/accel	/jointset/patellofemoral_r/patellar_flexion_r/accel	/jointset/knee_r/knee_flexion_r/accel	/jointset/knee_r/knee_adduction_r/accel	/jointset/knee_r/knee_rotation_r/accel	/jointset/ankle_r/ankle_angle_r/accel	/jointset/subtalar_r/subtalar_angle_r/accel	gamma_cid13_p0	gamma_cid14_p0	gamma_cid14_p1	gamma_cid14_p2	gamma_cid14_p3	gamma_cid14_p4	gamma_cid14_p5
0.5	-0.09941777376849008	0.04507855558139548	0.8629630835284582	0.6724006714590363	-0.2250316306517798	-0.1476147490958113	-0.635716977428726	0.704633414378365	0.7046334143783738	0.01765148074336272	0.1745178022457637	0.2068557151135516	0.1034468020300434	-0.2747221468962359	-0.1807127290443795	-0.2608410627160654	1.259218792129134	-0.01228520840598826	0.21545932862692	-0.7471350208369417	1.239076194564174	1.23907619456412	-0.2254711769977702	-6.653748061629603e-05	0.3172799419034895	0.08773927663374834	-0.1755796297410973	0.001251013328326067	0.01709963938288156	-0.2260471053637703	-0.007927736630809265	-0.004771910248593161	0.2283024802564564	-20.87984135532253	-46.04654665458254	-6.235249966273244	-3.038286648593286	-1.737639631150198	-656.2326855368265	64.04615295220805	0.08138276238020291	0.4334222567831314	-0.1345661405015822	-1.074010421015383	-0.0731638916692204	-0.2457388474501572	1.62952959915073	-1.08342118527901	-1.083421185278967	0.520537261293409	-0.02640408358593644	-0.2071738818324773	-0.1295122930891695	-1.551828396517069e-08	5.100473781447115e-08	5.912627999000476e-07	3.752515961828507e-07	-9.013552013136797e-08	2.667259371238398e-08	2.107762502262218e-07
0.51	-0.1021605710019167	0.04329327195104642	0.8603485113012257	0.6849374942744548	-0.2251580388552908	-0.1454740387665348	-0.6431058610884715	0.7169681879469411	0.7169681879469377	0.01542205595178944	0.1745169656181041	0.210017694728522	0.1043177094422115	-0.2737942702939878	-0.1763263507736568	-0.2620148931767818	1.247970379638722	-0.01299257541866077	0.2126709483619718	-0.7305477695877162	1.227707524528972	1.227707524528882	-0.2203946054753666	-0.0001000072213761433	0.3150724019399341	0.08643049321069089	-0.1809279809372472	0.002012671700281274	0.01735411643714898	-0.228349476999678	-0.0091287957527557	-0.004287767871262551	0.2332787520400764	-20.30938624434592	-46.58174091815599	-6.176494740339598	-2.981633395467496	-1.701080828405086	-659.1132688456099	64.23062868815556	0.1049494930923263	0.4438748842581589	-0.1000132076498567	-1.176558692881738	-0.06883945905787768	-0.2971516371998831	1.687414117067057	-1.189236054653902	-1.189236054659439	0.504193495217327	0.008371227741766869	-0.2340980371993959	-0.1331840802322998	-1.509759939801719e-08	4.900043117963509e-08	5.658157819370382e-07	3.491541781998252e-07	-8.710233268909423e-08	2.589205768447746e-08	2.114534715536393e-07
0.52	-0.1048927975925537	0.04155237795781158	0.8577239564276284	0.6973565725590145	-0.2252913839995437	-0.1433615650440971	-0.6503260539898713	0.7291841455867134	0.7291841455867883	0.01324399215493312	0.1745158322225032	0.2131562881471358	0.1051752044774844	-0.2726080183338824	-0.1718348016215372	-0.2628375919890266	1.235669885955213	-0.01367259655105965	0.2098120072497256	-0.7133968691680946	1.215313008813244	1.215313008813117	-0.2151989780528355	-0.0001258910796293881	0.3126027026330719	0.08505680125490564	-0.1862763321331797	0.002774330072427965	0.01760859349153092	-0.2306518486355391	-0.01032985487464329	-0.003803625493647883	0.2382550238238468	-19.73930361843765	-47.12018675269726	-6.118061926254159	-2.925210554052984	-1.674692660343898	-662.0521053543431	64.41292741580413	0.1330578339524501	0.4544564330616518	-0.06433981080729495	-1.284426659634416	-0.06769471561448089	-0.2598510169097735	1.742259433230223	-1.288590321384115	-1.288590321384147	0.5443484413188261	-0.02488690708453952	-0.2596057504948119	-0.1424939996350204	-1.479126950368647e-08	4.739882474116461e-08	5.353377235592458e-07	3.208295329642072e-07	-8.464872094338737e-08	2.912481126999463e-08	2.086964781306349e-07
0.53	-0.1076119060588702	0.03985686813411567	0.8550929170214258	0.7096475825183843	-0.2254314313642944	-0.1412778454947499	-0.6573720810366876	0.7412712381024141	0.7412712381024119	0.01111857650341117	0.1745143918228174	0.2162689117561682	0.1060185904682151	-0.2711698720802278	-0.1672548572397155	-0.2633119184291486	1.222368357501729	-0.01433277220530824	0.2069213582510954	-0.6957354912725964	1.201949089034775	1.201949089034662	-0.209868893742906	-0.0001598602947925212	0.3098814638372822	0.08360966761542399	-0.1913962380279114	0.003496227985056143	0.01781674271279263	-0.2329974245887502	-0.01148527473656527	-0.00332183444266223	0.2429931850777537	-19.16984676860877	-47.63771639070813	-6.057487911903332	-2.868558306627189	-1.612638682766248	-664.8613639001946	64.59924728099234	0.1557675446006815	0.4615926481371488	-0.03021727294888411	-1.37757236236485	-0.06447403015785808	-0.3052531083678682	1.789034306652564	-1.383750672929719	-1.383750672927463	0.5297143882289448	0.007759677363852333	-0.284480933229019	-0.1473147986818757	-1.453334794270027e-08	4.553443084793803e-08	5.047732320525983e-07	2.925255636417451e-07	-8.18717358352106e-08	3.182903753251579e-08	2.049715884830462e-07
0.54	-0.1103153181579676	0.03820752359571578	0.8524588867083562	0.721800665908403	-0.2255779394935801	-0.1392233486887266	-0.664239302836758	0.7532199998469465	0.7532199998468928	0.009046936887537429	0.1745126940522035	0.2193531033794154	0.1068472067720339	-0.2694687448853821	-0.1626017445623374	-0.2634357733624154	1.208084572081869	-0.01496474945274797	0.2039674585713572	-0.6776358198193307	1.187646854582252	1.187646854582155	-0.2044437709370414	-0.0001773652661156393	0.3069163054771615	0.08210286387286352	-0.1965161439223887	0.004218125897935337	0.01802489193366059	-0.2353430005419472	-0.01264069459841582	-0.002840043391293266	0.2477313463318418	-18.60135146260223	-48.15946206493474	-5.996923594296973	-2.812736406788158	-1.561035252877661	-667.7442248491852	64.78853980755638	0.1856540221914547	0.4690900921721172	0.005754490563703042	-1.480878052909526	-0.06205503425273258	-0.2725011531313927	1.829918144783975	-1.476253256194352	-1.47625325619436	0.5633561405057296	-0.02159405831644603	-0.3083896633619352	-0.1544280202510704	-1.432898453775482e-08	4.337929338774725e-08	4.741131124033878e-07	2.642444697976681e-07	-7.873697594302455e-08	3.394851016108392e-08	2.001758349274066e-07
0.55	-0.1130004496534932	0.03660502397094598	0.8498253552380608	0.7338061857779219	-0.2257306485208846	-0.1371985401518421	-0.6709234673436867	0.7650212210112816	0.7650212210111791	0.007030094310571478	0.1745108091938442	0.2224064512736912	0.1076604290406569	-0.2675145300264755	-0.1578907517493548	-0.2632126284792402	1.192867430773769	-0.01557156322324067	0.200982704836725	-0.6591412297573924	1.172452961674531	1.172452961674431	-0.1989161474399553	-0.0001963763470227011	0.3037149894774341	0.08053331040495526	-0.2014087646427823	0.00493417400702825	0.01818967291955619	-0.2376912200933335	-0.01377163632705848	-0.00238353828939334	0.2522303942734633	-18.03425151654298	-48.66693842351047	-5.946328205005765	-2.753628392368396	-1.468095454134462	-670.4708229313209	64.95143624191155	0.2067620978631294	0.47320276460237	0.03928534047573368	-1.564922855933481	-0.05909663028942906	-0.3131972387972238	1.867607208766893	-1.562616954833913	-1.562616954834256	0.5488297899215109	0.00848172992728116	-0.3317575987372174	-0.1593598447336268	-1.442451854470341e-08	4.020306362072333e-08	4.394275256478254e-07	2.297782481359956e-07	-7.454235411355752e-08	3.486304855184771e-08	1.932045735057424e-07
0.5600000000000001	-0.1156647476244271	0.03504985405205339	0.8471957933872546	0.7456549760971318	-0.2258892461022783	-0.135203926103332	-0.677421010395619	0.7766661713171433	0.776666171317075	0.00506880083566115	0.174508841497273	0.2254266350018768	0.1084577276076633	-0.2653020399625943	-0.1531358033868964	-0.2626418494645986	1.176738662018765	-0.01614246026738618	0.1979285608953691	-0.6403115288206818	1.156392682895896	1.156392682895795	-0.1933339505183953	-0.0001939329117263473	0.3002834722593294	0.07891812355012474	-0.2063013853630136	0.005650222116087259	0.01835445390559532	-0.2400394396446703	-0.01490257805570884	-0.001927033187547155	0.2567294422152269	-17.46905281514072	-49.17943343522022	-5.895488025166051	-2.695842513071503	-1.38588274375502	-673.2836463629239	65.12173863199065	0.2373090631871217	0.4778812020664965	0.07528131685689093	-1.663203542289943	-0.05487168898325739	-0.2863791944761552	1.896940319738678	-1.649530430376589	-1.649530430376651	0.574270825400392	-0.01730315507563345	-0.3544299070383154	-0.1635546976358079	-1.487992944592484e-08	3.580152308549967e-08	3.99911378364641e-07	1.878898730932087e-07	-6.907589795935335e-08	3.433166585724634e-08	1.836227026448488e-07
